<svg width="21" height="22" viewBox="0 0 21 22" fill="none" xmlns="http://www.w3.org/2000/svg">
<path d="M19.9559 10.9999C19.9559 16.611 15.6171 21.1214 10.311 21.1214C5.00488 21.1214 0.666057 16.611 0.666057 10.9999C0.666057 5.38887 5.00488 0.87846 10.311 0.87846C15.6171 0.87846 19.9559 5.38887 19.9559 10.9999Z" fill="url(#paint0_linear_500_90)"/>
<path d="M19.9559 10.9999C19.9559 16.611 15.6171 21.1214 10.311 21.1214C5.00488 21.1214 0.666057 16.611 0.666057 10.9999C0.666057 5.38887 5.00488 0.87846 10.311 0.87846C15.6171 0.87846 19.9559 5.38887 19.9559 10.9999Z" fill="black" fill-opacity="0.66"/>
<path d="M19.9559 10.9999C19.9559 16.611 15.6171 21.1214 10.311 21.1214C5.00488 21.1214 0.666057 16.611 0.666057 10.9999C0.666057 5.38887 5.00488 0.87846 10.311 0.87846C15.6171 0.87846 19.9559 5.38887 19.9559 10.9999Z" stroke="url(#paint1_linear_500_90)" stroke-width="0.963951"/>
<g clip-path="url(#clip0_500_90)">
<path d="M12.3461 5.69338L11.5494 7.63142L12.4087 8.01875L13.2055 6.08071L12.3461 5.69336L12.3461 5.69338ZM8.28177 5.70111L7.4162 6.07298L8.18118 8.02498L9.04675 7.65311L8.28179 5.70111H8.28177ZM8.94846 5.84457L8.77298 5.92143L9.39375 7.50592L9.53616 7.86952L9.1892 8.01764L8.3237 8.38951L7.97645 8.53863L7.83404 8.17511L7.21771 6.60289L6.97821 6.70781C7.35204 7.23103 7.51994 7.88447 7.44731 8.53347C7.37468 9.18246 7.06704 9.77756 6.58781 10.1961V11.0201H8.60549V12.7834H6.58779V13.1056H8.60547V14.8714H6.58779V15.7376C6.95029 16.1172 8.63104 16.3068 10.3118 16.3068C11.9926 16.3068 13.6734 16.1172 14.0359 15.7376V14.8714H12.0182V13.1059H14.0359V12.7833H12.0175V11.0178H14.0352V10.1941C13.5559 9.7755 13.2483 9.18041 13.1757 8.53141C13.103 7.88242 13.2709 7.22898 13.6448 6.70576L13.4001 6.59844L12.7528 8.17283L12.6042 8.53399L12.2594 8.37849L11.4011 7.99306L11.0563 7.83755L11.2048 7.47641L11.8452 5.9182L11.675 5.84455C11.5399 6.09911 11.3423 6.31121 11.1026 6.45889C10.8629 6.60657 10.5898 6.68444 10.3117 6.68444C10.0336 6.68444 9.76054 6.60657 9.52084 6.45889C9.28115 6.31121 9.08353 6.09913 8.94846 5.84457ZM6.21191 11.4109V12.3905H8.23031V11.4109H6.21191ZM12.3929 11.4109V12.3905H14.4112V11.4109H12.3929ZM6.21191 13.4989V14.4786H8.23031V13.4989H6.21191V13.4989ZM12.3929 13.4989V14.4786H14.4112V13.4989H12.3929V13.4989Z" fill="url(#paint2_linear_500_90)"/>
</g>
<defs>
<linearGradient id="paint0_linear_500_90" x1="-8.39019" y1="10.9999" x2="20.4378" y2="10.9999" gradientUnits="userSpaceOnUse">
<stop stop-color="#CDDFCE"/>
<stop offset="1" stop-color="#778979"/>
</linearGradient>
<linearGradient id="paint1_linear_500_90" x1="-8.39019" y1="10.9999" x2="20.4378" y2="10.9999" gradientUnits="userSpaceOnUse">
<stop stop-color="#CDDFCE"/>
<stop offset="1" stop-color="#778979"/>
</linearGradient>
<linearGradient id="paint2_linear_500_90" x1="2.74079" y1="11.0001" x2="14.4112" y2="11.0001" gradientUnits="userSpaceOnUse">
<stop stop-color="#CDDFCE"/>
<stop offset="1" stop-color="#778979"/>
</linearGradient>
<clipPath id="clip0_500_90">
<rect width="11.0475" height="11.5674" fill="white" transform="translate(4.7876 5.2168)"/>
</clipPath>
</defs>
</svg>
