<svg width="23" height="22" viewBox="0 0 23 22" fill="none" xmlns="http://www.w3.org/2000/svg">
<path d="M22.3239 11C22.3239 16.7966 17.6005 21.5 11.7687 21.5C5.93677 21.5 1.21338 16.7966 1.21338 11C1.21338 5.20337 5.93677 0.5 11.7687 0.5C17.6005 0.5 22.3239 5.20337 22.3239 11Z" fill="url(#paint0_linear_500_100)"/>
<path d="M22.3239 11C22.3239 16.7966 17.6005 21.5 11.7687 21.5C5.93677 21.5 1.21338 16.7966 1.21338 11C1.21338 5.20337 5.93677 0.5 11.7687 0.5C17.6005 0.5 22.3239 5.20337 22.3239 11Z" fill="black" fill-opacity="0.66"/>
<path d="M22.3239 11C22.3239 16.7966 17.6005 21.5 11.7687 21.5C5.93677 21.5 1.21338 16.7966 1.21338 11C1.21338 5.20337 5.93677 0.5 11.7687 0.5C17.6005 0.5 22.3239 5.20337 22.3239 11Z" stroke="url(#paint1_linear_500_100)"/>
<path d="M7.50657 7.50143C7.34955 7.93821 7.17337 8.37725 7.11832 8.84155C7.06651 9.27786 7.16799 9.59516 7.38166 9.96892C7.59579 10.3436 7.97137 10.8929 8.42207 11.1448V16.9985H9.43916V11.1509C9.8948 10.9019 10.2749 10.3467 10.4908 9.969C10.7045 9.59524 10.8059 9.27793 10.7542 8.8416C10.699 8.37731 10.5229 7.93829 10.3659 7.50149C10.2423 7.15765 9.99589 6.30326 9.5409 6.25027L9.81209 8.76033H9.47307L9.20172 6.24023H8.93617H8.67059L8.3994 8.76025H8.06039L8.33157 6.25019C7.8766 6.30322 7.63024 7.15759 7.50657 7.50143Z" fill="#FFA216"/>
<path d="M14.4253 17V11.2401C15.2709 10.9709 15.8946 10.0394 15.8946 8.93132C15.8946 7.61283 15.0116 6 13.9224 6C12.8332 6 11.9502 7.61283 11.9502 8.93132C11.9502 10.0344 12.5684 10.9623 13.4082 11.2362V17H14.4253Z" fill="#FFA216"/>
<defs>
<linearGradient id="paint0_linear_500_100" x1="-8.64694" y1="11" x2="22.8238" y2="11" gradientUnits="userSpaceOnUse">
<stop stop-color="#FFA216"/>
<stop offset="1" stop-color="#FFA216"/>
</linearGradient>
<linearGradient id="paint1_linear_500_100" x1="-8.64694" y1="11" x2="22.8238" y2="11" gradientUnits="userSpaceOnUse">
<stop stop-color="#FFA216"/>
<stop offset="1" stop-color="#FFA216"/>
</linearGradient>
</defs>
</svg>
